<svg width="28" height="29" viewBox="0 0 28 29" fill="none" xmlns="http://www.w3.org/2000/svg">
<path d="M16.5511 14.324L27.363 3.51183C28.0666 2.80854 28.0666 1.67142 27.363 0.968138C26.6597 0.264852 25.5226 0.264852 24.8193 0.968138L14.0071 11.7803L3.1953 0.968138C2.49168 0.264852 1.3549 0.264852 0.651613 0.968138C-0.0520024 1.67142 -0.0520024 2.80854 0.651613 3.51183L11.4634 14.324L0.651613 25.1361C-0.0520024 25.8394 -0.0520024 26.9765 0.651613 27.6798C1.0021 28.0306 1.46294 28.2069 1.92346 28.2069C2.38397 28.2069 2.84448 28.0306 3.1953 27.6798L14.0071 16.8677L24.8193 27.6798C25.1701 28.0306 25.6306 28.2069 26.0911 28.2069C26.5516 28.2069 27.0121 28.0306 27.363 27.6798C28.0666 26.9765 28.0666 25.8394 27.363 25.1361L16.5511 14.324Z" fill="#E43581"/>
</svg>
