<svg width="253" height="61" viewBox="0 0 253 61" fill="none" xmlns="http://www.w3.org/2000/svg">
<path d="M67.1627 1.15959C67.1627 1.29582 66.958 1.36394 66.6169 1.36394C66.0029 1.43205 65.5253 1.56829 65.116 1.70452C62.8646 2.4538 60.818 3.61178 59.0442 5.04222C60.6815 7.08572 61.5002 9.26544 61.5002 11.5814C61.5002 13.4205 60.9544 15.0553 59.8628 16.5539C58.5666 18.3249 56.5881 19.8235 53.8592 21.1177C51.4714 22.2076 49.1518 22.8887 46.9005 23.2293C50.0387 25.0685 51.6079 27.725 51.6079 31.1308C51.6079 32.8337 51.1303 34.5366 50.1752 36.1033C48.4696 38.8961 45.6043 41.0758 41.4427 42.7106C37.6904 44.2092 33.6652 45.0266 29.299 45.0266C24.1823 45.0947 18.7926 44.5498 13.1984 43.2555C12.3797 43.0512 11.2199 42.7787 9.719 42.5063C10.7423 45.9802 12.6526 48.6367 15.3815 50.4759C18.0422 52.1788 21.3169 52.9962 25.1374 52.7918C27.9345 52.6556 30.3223 51.9063 32.369 50.4759C32.983 49.9991 33.3924 49.7947 33.4606 49.9309C33.7335 50.2034 33.597 50.6121 32.9148 51.157C32.2326 51.702 31.141 52.315 29.5719 52.86C27.8663 53.4049 26.3654 53.6773 24.9327 53.7455C20.7711 53.8817 17.2235 52.9281 14.3582 51.0208C11.4928 49.0454 9.58256 46.3208 8.69566 42.7787C6.64897 43.2555 4.73873 43.4599 3.03316 43.528C2.28271 43.528 1.6687 43.4599 1.19114 43.2555C0.71358 43.1193 0.508911 42.8468 0.508911 42.5063C0.577134 41.4845 1.87337 40.8033 4.32939 40.599C5.42096 40.5309 6.71719 40.599 8.2181 40.8715C7.94521 39.3048 7.87698 37.7381 7.94521 36.1033C8.08165 31.8801 9.105 27.5888 10.947 23.3655C12.8573 18.8017 15.5179 14.9191 18.7926 11.6495C22.4085 8.10746 26.7065 5.38281 31.755 3.40743C36.8035 1.43205 41.9202 0.478423 47.0369 0.614656C51.949 0.750889 55.7695 1.97698 58.4302 4.36106C60.6815 2.79438 62.7964 1.70452 64.7749 1.2277C65.3889 1.09147 66.0029 0.955238 66.4805 0.955238C66.958 0.887122 67.2309 0.955238 67.1627 1.15959ZM57.5433 4.76976C54.8826 2.59003 51.335 1.50017 46.9005 1.50017C37.2811 1.36394 28.5485 5.11034 20.7029 12.8075C17.0189 16.4177 14.1535 20.3003 12.1068 24.5235C10.1966 28.5424 9.105 32.3569 9.03677 36.1033C8.96855 37.9425 9.03677 39.6454 9.37789 41.0758C10.5377 41.3483 11.8339 41.3483 13.2666 41.0758C17.2235 40.2584 21.1805 38.4193 25.0009 35.4222C28.1392 32.97 32.369 28.883 37.6222 23.2293C46.2183 13.8974 52.9041 7.76688 57.5433 4.76976ZM46.9687 35.2178C48.1967 33.3787 48.8107 31.4033 48.8107 29.4279C48.8107 26.3627 47.5827 24.3192 45.1267 23.2974C44.6491 23.3655 44.1716 23.2974 43.6258 23.0931C43.08 22.8887 42.8071 22.6163 42.8071 22.2757C42.466 22.7525 42.1249 23.1612 41.852 23.5018C31.755 34.8772 21.658 41.0758 11.561 42.0294C11.9704 42.0976 12.5844 42.2338 13.3348 42.4381C18.7244 43.5961 24.114 44.1411 29.5036 44.0729C32.983 44.0048 36.3259 43.1874 39.5324 41.5526C42.8071 39.986 45.2631 37.8743 46.9687 35.2178ZM58.3619 5.58716C55.7695 7.63065 52.9723 10.3553 50.107 13.693C49.6294 14.2379 47.378 16.8945 43.4893 21.6626C44.1033 21.5264 44.922 21.867 46.0818 22.6163C50.721 22.2076 54.4732 19.8916 57.4068 15.8046C58.9077 13.7611 59.5899 11.7176 59.5899 9.67414C59.5217 8.10746 59.1124 6.74513 58.3619 5.58716Z" fill="#E43581"/>
<path d="M72.0742 24.9315C72.0742 26.2257 70.9826 27.5881 68.7995 29.1547C67.9808 29.7678 66.821 30.3127 65.3201 30.7895C63.8874 31.2663 62.7276 31.5388 61.8407 31.5388C61.3632 31.5388 61.0221 31.4707 60.8174 31.3345C56.3829 35.5577 54.1316 38.6229 54.1316 40.5302C54.1316 41.2795 54.6091 41.6882 55.496 41.6882C56.8605 41.6882 58.7025 40.9389 61.0221 39.5084C63.4781 37.9418 66.207 35.8301 69.0724 33.1055C69.4817 32.6968 69.8228 32.6287 69.9593 32.833C70.0957 33.0374 70.0275 33.3098 69.6182 33.7185C67.1621 35.9664 64.7743 37.9418 62.3183 39.5765C59.2483 41.7563 56.6558 42.7099 54.6091 42.5056C52.5624 42.3012 51.6073 41.1432 51.7437 39.0997C52.0166 36.5113 53.654 33.7867 56.6558 30.8576C58.7707 28.8142 61.1585 27.0431 63.8192 25.5446C66.4799 24.046 68.5948 23.2967 70.0275 23.2967C71.4602 23.3648 72.0742 23.9098 72.0742 24.9315ZM70.8462 24.1822C70.4368 23.9098 69.1406 24.5909 66.8892 26.2257C64.7743 27.7924 62.8641 29.3591 61.2267 30.9939C61.3632 31.062 61.4996 31.062 61.7043 31.062C63.4099 31.062 65.593 30.0402 68.1173 28.0649C70.0275 26.4982 71.0508 25.3402 71.0508 24.5228C70.9826 24.3866 70.9144 24.2504 70.8462 24.1822Z" fill="#E43581"/>
<path d="M92.3362 23.9779C86.742 29.0185 82.4439 33.2417 79.5103 36.7838C77.7365 38.8954 76.8496 40.2577 76.8496 40.8708C76.8496 41.1432 76.9861 41.2795 77.1908 41.3476C77.9412 41.7563 79.9879 40.5983 83.3308 38.0099C84.6953 36.92 86.742 35.2171 89.3344 32.9011C89.6755 32.5606 89.9484 32.5606 90.0849 32.833C90.2213 33.1055 90.0849 33.378 89.7438 33.6504C87.6289 35.4896 85.6504 37.1925 83.8766 38.6229C80.7383 41.1432 78.487 42.4374 77.1225 42.4374C75.6216 42.4374 74.8712 41.7563 74.8712 40.3258C74.8712 39.3722 75.2805 38.2823 76.1674 37.0562C71.9376 40.6664 68.8676 42.4374 67.0255 42.4374C65.5929 42.4374 64.8424 41.7563 64.8424 40.3258C64.8424 37.8055 66.4798 34.8765 69.7545 31.4707C71.9376 29.291 74.4618 27.3837 77.3954 25.7489C80.329 24.1141 82.7168 23.2967 84.4906 23.2967C85.8551 23.2967 86.5373 23.7735 86.5373 24.6591C86.5373 25.5446 85.8551 26.6344 84.5588 27.8605C87.2195 25.6808 88.9933 24.4547 89.8802 24.1141C90.5624 23.9779 91.3811 23.9098 92.3362 23.9779ZM84.8317 24.3185C82.785 24.3185 78.7599 27.2475 72.6198 33.1055C68.7311 36.7838 66.8209 39.4403 66.8209 40.9389C66.8209 41.2113 66.9573 41.4157 67.2302 41.5519C67.8442 41.8244 69.3451 41.0751 71.7329 39.3041C74.1889 37.5331 76.645 35.3533 79.3057 32.6968C83.5355 28.3373 85.6504 25.817 85.6504 24.9996C85.5822 24.5228 85.3775 24.3185 84.8317 24.3185Z" fill="#E43581"/>
<path d="M112.189 23.6373C106.731 28.6779 102.502 33.0373 99.4316 36.7837C97.5896 39.0316 96.6344 40.462 96.6344 41.007C96.6344 41.2113 96.7709 41.3475 96.9756 41.4156C97.7942 41.8243 99.7045 40.7345 102.775 38.3504C102.843 38.2823 104.889 36.5113 108.915 33.1055C109.324 32.833 109.597 32.833 109.733 32.9692C109.938 33.1736 109.87 33.3779 109.529 33.6504C108.028 35.0808 106.049 36.7837 103.457 38.8272C100.318 41.2794 98.0671 42.5055 96.9073 42.5055C95.4064 42.4374 94.656 41.7562 94.656 40.3939C94.656 39.4403 95.0653 38.2823 95.884 36.92C95.3382 37.4649 94.5878 38.0779 93.7009 38.8272C90.5626 41.2794 88.243 42.5055 86.8786 42.5055C85.4459 42.5055 84.6954 41.8925 84.6954 40.6664C84.6954 38.5548 86.2646 35.8301 89.471 32.4924C92.6093 29.1547 95.8158 26.5663 99.0905 24.7271C100.182 24.1141 101.478 23.8416 103.047 23.9779C97.0438 28.8822 92.5411 33.1736 89.6075 36.7156C87.7655 38.9635 86.8786 40.3258 86.8786 40.8707C86.8786 41.1432 87.015 41.2794 87.2197 41.3475C88.1066 41.7562 90.1533 40.7345 93.2915 38.2142C94.7924 37.0562 96.7709 35.1489 99.2951 32.5605C103.32 28.4054 106.527 25.6127 108.915 24.2503C109.665 23.7054 110.757 23.501 112.189 23.6373Z" fill="#E43581"/>
<path d="M135.385 13.8286V14.033C134.021 14.3054 132.315 15.1909 130.337 16.6214C127.608 18.5286 124.401 21.3895 120.513 25.1359C123.651 25.1359 125.356 25.1359 125.493 25.1359C125.629 25.1359 125.697 25.2722 125.561 25.5446C125.493 25.749 125.22 25.8852 124.879 25.8852C122.832 25.8852 121.058 25.9533 119.557 26.0896C118.534 27.1113 117.374 28.2693 116.146 29.5635C110.211 35.6259 107.277 39.3723 107.277 40.8027C107.277 41.4158 107.618 41.6882 108.301 41.6882C109.46 41.6882 111.302 40.7346 113.758 38.8954C116.078 37.1244 118.329 35.2172 120.513 33.1737C120.922 32.9012 121.263 32.8331 121.399 32.9693C121.536 33.1056 121.399 33.4461 120.99 33.9911C118.602 36.1708 116.283 38.1462 113.963 39.8491C111.371 41.7563 109.392 42.7781 107.891 42.7781C106.117 42.7781 105.231 41.8926 105.231 40.1897C105.231 38.4867 106.663 35.9664 109.597 32.6287C110.416 31.6751 112.462 29.5635 115.873 26.0896C114.918 26.1577 113.69 26.2258 112.121 26.362C111.644 26.4301 111.439 26.2939 111.507 26.0214C111.575 25.8171 111.78 25.6809 112.189 25.6128C112.803 25.4765 114.304 25.4084 116.76 25.2722C121.468 20.5721 125.288 17.4388 128.085 15.8721C129.654 14.9866 130.814 14.4417 131.633 14.2373C132.793 13.8967 134.021 13.7605 135.385 13.8286Z" fill="#E43581"/>
<path d="M144.39 23.7055C144.39 23.7736 144.254 23.8417 143.981 24.1142C143.367 24.4548 142.548 25.1359 141.525 26.1577C138.864 28.6099 135.18 32.4244 130.473 37.6012C126.994 41.3476 125.083 43.4592 124.674 43.8679C121.945 46.6607 119.284 49.0448 116.828 51.0202C108.71 57.355 100.796 60.4202 93.2232 60.284C90.0849 60.2159 87.4243 59.5347 85.2411 58.2405C82.9215 56.8782 81.5571 55.039 81.0795 52.7231C80.8749 51.7013 80.9431 51.1564 81.4206 51.0883C81.6253 51.0202 81.83 51.3607 81.8982 52.11C82.3075 54.2898 83.6038 56.0608 85.8551 57.355C87.8336 58.513 90.2214 59.126 92.9503 59.1941C99.295 59.3304 106.254 56.4014 113.963 50.2028C116.487 48.1593 119.353 45.639 122.491 42.5056C125.356 39.7128 127.403 37.465 128.631 35.9664C126.721 37.6693 125.493 38.6911 124.947 39.0998C122.013 41.4157 119.83 42.5737 118.466 42.5737C116.965 42.5737 116.283 41.8926 116.283 40.5984C116.283 38.5549 117.783 35.8983 120.853 32.765C124.196 29.291 127.539 26.7026 130.746 24.8635C131.837 24.2504 133.134 24.0461 134.635 24.1142C128.699 28.8823 124.196 33.1055 121.126 36.8519C119.353 38.9636 118.466 40.3259 118.466 40.9389C118.466 41.3476 118.67 41.4839 119.011 41.4839C120.103 41.4839 122.013 40.4621 124.674 38.3505C127.744 35.8983 130.882 33.1737 134.089 30.1765C135.794 28.6099 138.114 26.5664 141.116 24.1823C141.798 23.7736 142.753 23.5692 144.117 23.5692C144.186 23.5692 144.39 23.5692 144.39 23.7055Z" fill="#E43581"/>
<path d="M252.865 5.72271C253.001 5.99518 252.933 6.13141 252.728 6.13141C252.66 6.19953 252.524 6.13141 252.319 5.85894C251.091 3.88357 248.703 2.7937 245.087 2.72559C237.856 2.45312 226.463 9.33288 210.976 23.3649C207.633 26.4301 204.29 29.4272 200.947 32.4925C197.331 35.6939 194.33 38.2142 191.874 40.0534C187.985 42.9824 184.983 44.4128 182.868 44.4128C181.708 44.4128 181.094 43.8679 181.094 42.778C180.958 41.2114 182.118 38.8273 184.574 35.6939C186.893 32.7649 191.191 27.9287 197.536 21.1851C200.879 17.6431 203.744 14.2373 206.064 11.0358C206.541 10.3546 206.814 9.94593 206.678 9.74158C206.541 9.60535 205.723 10.0822 204.154 11.1039C201.902 12.6706 199.105 14.7141 195.899 17.3706C193.443 19.346 190.987 21.3214 188.462 23.2967C184.642 26.362 180.89 29.3591 177.069 32.4244C172.908 35.7621 169.496 38.2824 166.904 40.0534C162.538 42.9824 159.399 44.4128 157.353 44.4128C156.261 44.4128 155.784 43.8679 155.92 42.778C156.125 41.007 157.762 38.6229 160.696 35.6939C164.039 32.4244 169.019 27.6562 175.5 21.3214C179.866 16.9619 183.414 13.0793 186.143 9.67346C187.78 7.62997 188.872 6.13141 189.418 5.10966C186.143 4.56473 182.118 4.36038 177.206 4.4285C168.541 4.56473 160.286 7.22127 152.509 12.33C149.234 14.5097 146.574 17.03 144.595 19.8909C142.753 22.5475 141.798 24.9997 141.661 27.3156C141.525 31.8794 143.026 35.4215 146.232 37.8055C146.71 38.078 146.983 38.2824 146.915 38.4186C146.846 38.5548 146.642 38.6229 146.232 38.5548C142.139 36.307 140.229 32.4925 140.57 27.1113C140.706 24.3185 141.661 21.4576 143.503 18.4605C145.482 15.1909 148.143 12.5344 151.417 10.3546C158.785 5.51836 167.313 3.06617 177.137 3.06617C181.913 3.06617 186.211 3.40675 189.827 4.15603C189.895 4.08792 190.236 3.27052 190.85 1.70384C190.918 1.56761 190.987 1.49949 191.055 1.49949C191.191 1.49949 191.396 1.84007 191.601 2.52124C191.805 3.2024 191.874 3.88357 191.737 4.63285C193.784 5.04155 195.353 5.58648 196.581 6.33576C197.195 6.74446 197.4 7.01692 197.127 7.28939C197.058 7.3575 196.717 7.22127 196.103 6.88069C194.807 6.26764 193.306 5.79083 191.396 5.45024C190.918 7.28939 189.895 9.33288 188.326 11.5126C186.143 14.5097 182.118 18.9373 176.182 24.8634C174.545 26.4982 172.294 28.5417 169.36 31.1301C165.335 34.6041 163.015 36.6476 162.469 37.1244C159.195 40.0534 157.489 41.8925 157.353 42.778C157.285 43.1186 157.421 43.323 157.762 43.3911C159.331 43.6636 162.265 42.165 166.631 38.8954C170.929 35.4215 177.547 30.1765 186.347 23.0924C190.304 19.959 195.967 15.5996 203.335 10.1503C206.61 7.97055 208.725 6.88069 209.884 6.88069C210.498 6.88069 210.84 7.22127 210.84 7.83432C210.84 8.37925 210.226 9.60535 208.929 11.5807C207.155 14.3054 203.54 18.7329 198.082 24.9315C196.035 27.2475 192.215 31.3345 186.552 37.1925C183.96 39.9172 182.595 41.8244 182.459 42.8462C182.459 43.2549 182.595 43.4592 182.936 43.4592C184.505 43.7317 187.234 42.3012 191.123 39.1679C194.057 36.7838 199.924 31.4707 208.725 23.1605C225.507 7.7662 237.583 0.137163 245.292 0.477745C249.454 0.682095 251.978 2.38501 252.865 5.72271Z" fill="#E43581"/>
<path d="M230.351 23.9779C224.757 29.0185 220.459 33.2417 217.525 36.7838C215.752 38.8954 214.865 40.2577 214.865 40.8708C214.865 41.1432 215.001 41.2795 215.206 41.3476C215.956 41.7563 218.003 40.5983 221.346 38.0099C222.71 36.92 224.757 35.2171 227.35 32.9011C227.691 32.5606 227.964 32.5606 228.1 32.833C228.236 33.1055 228.1 33.378 227.759 33.6504C225.644 35.4896 223.665 37.1925 221.892 38.6229C218.753 41.1432 216.502 42.4374 215.138 42.4374C213.637 42.4374 212.886 41.7563 212.886 40.3258C212.886 39.3722 213.296 38.2823 214.182 37.0562C209.953 40.6664 206.883 42.4374 205.041 42.4374C203.608 42.4374 202.857 41.7563 202.857 40.3258C202.857 37.8055 204.495 34.8765 207.77 31.4707C209.953 29.291 212.477 27.3837 215.41 25.7489C218.344 24.1141 220.732 23.2967 222.506 23.2967C223.87 23.2967 224.552 23.7735 224.552 24.6591C224.552 25.5446 223.87 26.6344 222.574 27.8605C225.235 25.6808 227.008 24.4547 227.895 24.1141C228.578 23.9779 229.464 23.9098 230.351 23.9779ZM222.915 24.3185C220.868 24.3185 216.843 27.2475 210.703 33.1055C206.814 36.7838 204.904 39.4403 204.904 40.9389C204.904 41.2113 205.041 41.4157 205.313 41.5519C205.927 41.8244 207.428 41.0751 209.816 39.3041C212.272 37.5331 214.728 35.3533 217.389 32.6968C221.619 28.3373 223.734 25.817 223.734 24.9996C223.665 24.5228 223.393 24.3185 222.915 24.3185Z" fill="#E43581"/>
<path d="M250.886 23.7055C250.886 23.7736 250.75 23.8417 250.477 24.1142C249.863 24.4548 249.044 25.1359 248.021 26.1577C245.36 28.6099 241.676 32.4244 236.969 37.6012C233.49 41.3476 231.579 43.4592 231.17 43.8679C228.441 46.6607 225.78 49.0448 223.324 51.0202C215.206 57.355 207.292 60.4202 199.719 60.284C196.581 60.2159 193.92 59.5347 191.737 58.2405C189.418 56.8782 188.053 55.039 187.576 52.7231C187.371 51.7013 187.439 51.1564 187.917 51.0883C188.121 51.0202 188.326 51.3607 188.394 52.11C188.804 54.2898 190.1 56.0608 192.351 57.355C194.33 58.513 196.717 59.126 199.446 59.1941C205.791 59.3304 212.75 56.4014 220.459 50.2028C222.983 48.1593 225.849 45.639 228.987 42.5056C231.852 39.7128 233.899 37.465 235.127 35.9664C233.217 37.6693 231.989 38.6911 231.443 39.0998C228.509 41.4157 226.326 42.5737 224.962 42.5737C223.461 42.5737 222.779 41.8926 222.779 40.5984C222.779 38.5549 224.279 35.8983 227.35 32.765C230.692 29.291 234.035 26.7026 237.242 24.8635C238.333 24.2504 239.63 24.0461 241.131 24.1142C235.195 28.8823 230.692 33.1055 227.622 36.8519C225.849 38.9636 224.962 40.3259 224.962 40.9389C224.962 41.3476 225.166 41.4839 225.507 41.4839C226.599 41.4839 228.509 40.4621 231.17 38.3505C234.24 35.8983 237.378 33.1737 240.585 30.1765C242.29 28.6099 244.61 26.5664 247.612 24.1823C248.294 23.7736 249.249 23.5692 250.614 23.5692C250.682 23.5692 250.886 23.5692 250.886 23.7055Z" fill="#E43581"/>
</svg>
