<svg width="29" height="29" viewBox="0 0 29 29" fill="none" xmlns="http://www.w3.org/2000/svg">
<path d="M27.5895 12.9802L15.5441 0.761959C14.8633 0.0741387 13.7565 0.0741387 13.0757 0.761959C12.3931 1.44978 12.3931 2.56698 13.0757 3.2548L23.8921 14.2265L13.0757 25.1983C12.3931 25.8861 12.3931 27.0033 13.0757 27.6911C13.7583 28.379 14.8633 28.379 15.5441 27.6911L27.5878 15.4729C28.2459 14.8115 28.2476 13.6436 27.5895 12.9802Z" fill="#E43581"/>
<path d="M15.3696 12.9807L3.3259 0.762447C2.6433 0.074627 1.53829 0.074627 0.857439 0.762447C0.174842 1.45027 0.174842 2.56747 0.857439 3.25529L11.6722 14.227L0.855697 25.1988C0.173101 25.8866 0.173101 27.0038 0.855697 27.6916C1.53829 28.3794 2.6433 28.3794 3.32416 27.6916L15.3678 15.4734C16.0259 14.812 16.0277 13.6441 15.3696 12.9807Z" fill="#E43581"/>
</svg>
