<svg width="66" height="73" viewBox="0 0 66 73" fill="none" xmlns="http://www.w3.org/2000/svg">
<path d="M56.0669 24.5423H65.8461V27.5438H56.0669V24.5423ZM59.5417 40.6545H48.4933V42.864H60.6444C61.2478 42.864 61.7472 42.3637 61.7472 41.7593V28.6486H59.5417V40.6545ZM0.846069 24.5423H10.6252V27.5438H0.846069V24.5423ZM18.0532 40.6545H6.69275V28.6486H4.48724V41.7593C4.48724 42.3637 4.98659 42.864 5.58999 42.864H18.0532V40.6545ZM36.5087 3.67777H38.2564V0.67627H28.4773V3.67777H30.2251H36.5087ZM22.589 32.4421H44.1239C44.7481 32.4421 45.3515 32.1711 45.7676 31.6917C46.2046 31.2332 46.4127 30.6079 46.371 29.9617L45.0186 10.1602H21.6943L20.3419 29.9825C20.3003 30.6079 20.5084 31.2332 20.9453 31.7126C21.3614 32.1711 21.944 32.4213 22.589 32.4421ZM31.307 5.8872H35.4059V7.95073H31.307V5.8872ZM36.5087 37.4029V34.6515H30.2043V37.4029C32.2433 37.5071 34.4488 37.5071 36.5087 37.4029ZM44.6233 65.1459L44.2904 68.4601C44.228 69.0229 43.7494 69.4397 43.1876 69.4189H23.5253C22.9636 69.4397 22.485 69.002 22.4226 68.4601L22.0689 65.1251C17.0337 66.1881 15.1194 67.6889 15.1194 68.4392C15.1194 69.1271 16.6383 70.2943 19.9466 71.2531C23.4837 72.2536 28.2068 72.8164 33.2628 72.8164C38.3189 72.8164 43.0212 72.2536 46.5791 71.2531C49.9082 70.3152 51.4063 69.1271 51.4063 68.4392C51.4063 67.6889 49.5545 66.209 44.6233 65.1459ZM33.3461 48.4501C31.3903 48.4501 29.4552 48.3667 27.4994 48.2V50.9305H38.8598V48.2208C37.0497 48.3667 35.1979 48.4501 33.3461 48.4501ZM24.524 67.2094H42.1889L43.6454 53.1399H23.0676L24.524 67.2094ZM47.3906 44.7399V38.2367C38.1316 40.1751 28.5605 40.1751 19.3016 38.2367V44.7399C28.5605 46.7409 38.1316 46.7409 47.3906 44.7399Z" fill="#E61771"/>
</svg>
