<svg width="29" height="29" viewBox="0 0 29 29" fill="none" xmlns="http://www.w3.org/2000/svg">
<path d="M1.42511 15.4729L13.4705 27.6912C14.1514 28.379 15.2581 28.379 15.939 27.6912C16.6216 27.0033 16.6216 25.8861 15.939 25.1983L5.1225 14.2266L15.939 3.25483C16.6216 2.56701 16.6216 1.44981 15.939 0.761985C15.2564 0.0741649 14.1514 0.0741648 13.4705 0.761985L1.42685 12.9802C0.768773 13.6416 0.767033 14.8095 1.42511 15.4729Z" fill="#E43581"/>
<path d="M13.6451 15.4727L25.6887 27.6909C26.3713 28.3787 27.4764 28.3787 28.1572 27.6909C28.8398 27.0031 28.8398 25.8859 28.1572 25.1981L17.3425 14.2263L28.159 3.25458C28.8415 2.56676 28.8415 1.44956 28.159 0.761741C27.4764 0.0739207 26.3713 0.0739206 25.6905 0.761741L13.6468 12.98C12.9887 13.6414 12.987 14.8092 13.6451 15.4727Z" fill="#E43581"/>
</svg>
