<svg width="69" height="59" viewBox="0 0 69 59" fill="none" xmlns="http://www.w3.org/2000/svg">
<path d="M0.666737 42.4579C0.666737 51.2917 7.88141 58.4526 16.7816 58.4526C25.6819 58.4526 32.8965 51.2917 32.8965 42.4579C32.8965 33.624 25.6819 26.4633 16.7816 26.4633C14.9524 26.4633 13.2015 26.7798 11.5624 27.3375C15.189 6.69364 31.4083 -6.61932 16.373 4.33751C-0.298791 16.4874 0.648882 41.9691 0.667536 42.4361C0.667536 42.4433 0.666737 42.4498 0.666737 42.4579Z" fill="#E43581"/>
<path d="M36.1193 42.4579C36.1193 51.2917 43.334 58.4526 52.2342 58.4526C61.1345 58.4526 68.3492 51.2917 68.3492 42.4579C68.3492 33.624 61.1344 26.4633 52.2341 26.4633C50.4049 26.4633 48.6541 26.7798 47.015 27.3375C50.6415 6.69364 66.8608 -6.61932 51.8256 4.33751C35.1538 16.4874 36.1013 41.9691 36.1201 42.4361C36.1201 42.4433 36.1193 42.4498 36.1193 42.4579Z" fill="#E43581"/>
</svg>
