<svg width="66" height="66" viewBox="0 0 66 66" fill="none" xmlns="http://www.w3.org/2000/svg">
<path d="M7.81434 34.7196L3.54047 40.602L8.59478 45.6653L12.051 41.3466V32.43L11.7909 32.4486C10.2114 32.5789 8.76202 33.4166 7.81434 34.7196ZM19.2795 27.832L19.6511 25.9333C18.7777 25.4679 17.9601 24.8722 17.2354 24.1462C15.3215 22.2289 14.2623 19.6972 14.2623 16.998V14.5967C14.2623 11.5438 16.0462 8.73289 18.8149 7.46706L21.5651 6.20123C21.1934 5.36355 20.9704 4.43279 20.9704 3.44619V0.653916C15.8418 2.12451 12.051 6.87137 12.051 12.5304V30.1403L17.3098 29.6191C18.2946 29.526 19.0936 28.8 19.2795 27.832ZM14.2809 47.3407H16.5293V49.5931H14.2809V47.3407ZM14.2809 42.8358H16.5293V45.0883H14.2809V42.8358ZM14.2809 51.8269H16.5293V54.0794H14.2809V51.8269ZM1.49644 43.4315C1.06905 44.0272 0.846069 44.716 0.846069 45.4419C0.846069 46.3541 1.19913 47.229 1.8495 47.8619L12.051 58.0816V52.2923L2.20256 42.4449L1.49644 43.4315ZM18.7777 34.9802C18.7777 35.5945 19.2795 36.0971 19.8927 36.0971H28.8678C29.481 36.0971 29.9827 35.5945 29.9827 34.9802V31.946C28.3847 33.1746 26.4335 33.8447 24.3709 33.8447C22.3083 33.8447 20.3758 33.1746 18.7592 31.946V34.9802H18.7777ZM28.3289 30.3823C27.8086 29.8052 27.437 29.0792 27.2697 28.2788L26.9724 26.7523C26.1548 26.9757 25.3 27.106 24.4081 27.106C24.4081 27.106 24.3895 27.106 24.3709 27.106C23.479 27.106 22.6056 26.9757 21.7695 26.7523L21.4721 28.2788C21.3049 29.0979 20.9333 29.8052 20.413 30.3823C21.5651 31.1828 22.9401 31.6109 24.3709 31.6109C25.8018 31.6109 27.1768 31.1828 28.3289 30.3823ZM16.5293 14.578V16.9794C16.5293 19.0829 17.3469 21.0561 18.8335 22.5453C20.3201 24.0345 22.3269 24.8164 24.3895 24.835C28.7006 24.8164 32.2126 21.2981 32.2126 16.9794V13.9637C32.2126 12.3628 31.0791 10.9667 29.4996 10.6689L26.415 10.0359C25.0213 9.75672 23.7949 9.04935 22.8658 8.06274L19.7812 9.49611C17.8115 10.4082 16.5293 12.4001 16.5293 14.578ZM28.8678 13.6473C29.481 13.6473 29.9827 14.1499 29.9827 14.7642C29.9827 15.3785 29.481 15.8811 28.8678 15.8811C28.2546 15.8811 27.7529 15.3785 27.7529 14.7642C27.7343 14.1499 28.236 13.6473 28.8678 13.6473ZM22.1411 18.9898C22.5685 19.8461 23.4233 20.386 24.3895 20.386C25.3558 20.386 26.2106 19.8461 26.6379 18.9898L26.7494 18.7478L28.7563 19.7531L28.6448 19.995C27.8272 21.6146 26.2106 22.6198 24.3895 22.6198C22.5871 22.6198 20.9518 21.6146 20.1342 19.995L20.0227 19.7531L22.0296 18.7478L22.1411 18.9898ZM21.0076 14.7642C21.0076 15.3785 20.5059 15.8811 19.8927 15.8811C19.2795 15.8811 18.7777 15.3785 18.7777 14.7642C18.7777 14.1499 19.2795 13.6473 19.8927 13.6473C20.5059 13.6473 21.0076 14.1499 21.0076 14.7642ZM26.8609 7.83936L29.9641 8.45366C32.5656 8.97488 34.461 11.2832 34.461 13.9637V16.998C34.461 20.87 32.2869 24.2207 29.0908 25.9333L29.481 27.8506C29.6668 28.8186 30.4659 29.5446 31.4507 29.6377L36.7094 30.1589V12.5304C36.7094 5.71724 31.172 0.169922 24.3709 0.169922C23.9993 0.169922 23.6277 0.188537 23.256 0.225767V3.42757C23.256 5.56831 24.7797 7.41121 26.8609 7.83936ZM44.2166 23.625L45.666 22.173V14.1127L44.2166 12.6607C43.9564 12.4001 43.4175 12.6048 43.4175 12.9958V23.2899C43.4361 23.6622 43.9564 23.8856 44.2166 23.625ZM14.2809 56.3132H21.0076V65.3043H14.2809V56.3132ZM65.8461 19.2691V17.0166H63.5976V14.7642H65.6417C65.1771 13.4611 63.9507 12.5118 62.4827 12.5118C62.1111 12.5118 61.7394 12.549 61.3678 12.549V23.6808C61.7394 23.6995 62.1111 23.7367 62.4827 23.7367C63.9507 23.7367 65.1771 22.7873 65.6417 21.4843H63.5976V19.2318H65.8461V19.2691ZM56.8895 25.4493V31.6109C56.8895 32.2252 57.3912 32.7278 58.0044 32.7278C58.6176 32.7278 59.1194 32.2252 59.1194 31.6109V25.7657C58.692 25.7099 58.2646 25.6727 57.8372 25.5982L56.8895 25.4493ZM47.9144 14.5967V21.6704L58.2089 23.383C58.5062 23.4389 58.8221 23.4575 59.1194 23.4947V12.7538C58.8221 12.791 58.5062 12.8096 58.2089 12.8654L47.9144 14.5967ZM52.3927 19.2691H50.1442V17.0166H52.3927V19.2691ZM56.8895 19.2691H54.6411V17.0166H56.8895V19.2691ZM32.2126 34.9802C32.2126 36.8418 30.7074 38.3496 28.8492 38.3496H19.8741C18.0159 38.3496 16.5107 36.8418 16.5107 34.9802V31.946L14.2809 32.188V40.602H16.5293C17.7743 40.602 18.7777 41.6072 18.7777 42.8544V54.0794H21.0262C22.2712 54.0794 23.2746 55.0846 23.2746 56.3318V65.3229H25.523V56.3318C25.523 55.0846 26.5265 54.0794 27.7715 54.0794H34.4982V32.188L32.2497 31.9646V34.9802H32.2126ZM27.7343 56.3132H34.461V65.3043H27.7343V56.3132ZM41.262 34.7941C40.1285 33.4352 38.5305 32.5789 36.7652 32.4114H36.7094V41.2349L41.3921 45.5536L46.2048 40.7323L41.262 34.7941ZM54.6411 31.6109V25.077L54.0093 24.9653C53.0616 25.2445 52.3927 26.1194 52.3927 27.106V28.2229H51.2777C50.6645 28.2229 50.1628 28.7256 50.1628 29.3398C50.1628 29.7494 50.3301 30.1589 50.6274 30.4568L52.4113 32.2438V49.5559H50.1628V45.4792L47.6357 42.4449L43.0273 47.0801L49.2895 52.8694C50.1257 53.6512 51.222 54.0794 52.3555 54.0794C54.8455 54.0794 56.8709 52.0503 56.8709 49.5559V34.7941C55.5888 34.3101 54.6411 33.0815 54.6411 31.6109Z" fill="#E61771"/>
</svg>
