<svg width="66" height="66" viewBox="0 0 66 66" fill="none" xmlns="http://www.w3.org/2000/svg">
<path d="M45.8443 22.287H44.5533C44.0294 24.5737 42.7571 26.6168 40.9422 28.0788L49.8483 31.6589C51.5135 32.3149 52.973 33.402 54.0956 34.7891C56.0789 33.3271 56.4157 30.553 56.397 28.7723C55.5176 29.091 54.5633 29.2034 53.6278 29.091C52.0561 28.8848 50.6716 28.0038 49.5302 26.4668C48.0708 24.4987 46.8547 23.1305 45.8443 22.287ZM55.2556 58.35H59.8958C60.532 58.35 61.0559 58.8748 61.0559 59.5121V64.1605C61.0559 64.7978 60.532 65.3226 59.8958 65.3226H55.2556C54.6195 65.3226 54.0956 64.7978 54.0956 64.1605V59.5121C54.0956 58.856 54.6195 58.35 55.2556 58.35ZM42.4764 15.2768C36.2271 14.9019 32.6347 11.5468 30.9695 9.42877C29.2856 12.1654 26.9468 14.0022 23.897 15.0144V19.9628C23.897 22.9055 25.4874 25.6046 28.032 27.0479L28.1068 27.0104L28.1442 27.1041C29.3417 27.7602 30.6701 28.0975 32.0173 28.0975H34.3374C35.6845 28.0975 37.0317 27.7602 38.2104 27.1041L38.2479 27.0104L38.3227 27.0479C40.886 25.6046 42.4577 22.9055 42.4577 19.9628L42.4764 15.2768ZM28.5559 18.8006C27.9197 18.8006 27.3958 18.2758 27.3958 17.6385C27.3958 17.0012 27.9197 16.4764 28.5559 16.4764C29.192 16.4764 29.7159 17.0012 29.7159 17.6385C29.7159 18.2758 29.192 18.8006 28.5559 18.8006ZM36.04 23.3366L33.7199 24.4987C33.4019 24.6674 33.0089 24.6674 32.6909 24.4987L30.3708 23.3366C29.7908 23.0367 29.5662 22.3432 29.8656 21.7809C30.1462 21.2186 30.8385 20.9937 31.4186 21.2561L33.2148 22.1558L35.011 21.2561C35.591 20.9562 36.2833 21.1998 36.5639 21.7622C36.8633 22.3245 36.6201 23.0367 36.04 23.3366C36.0587 23.3179 36.04 23.3366 36.04 23.3366ZM37.8362 18.8006C37.2001 18.8006 36.6762 18.2758 36.6762 17.6385C36.6762 17.0012 37.2001 16.4764 37.8362 16.4764C38.4724 16.4764 38.9963 17.0012 38.9963 17.6385C38.9963 18.2758 38.4911 18.8006 37.8362 18.8006ZM20.4355 19.9628H21.5956V15.3143H20.4355C19.7994 15.3143 19.2755 15.8391 19.2755 16.4764V18.8006C19.2755 19.4379 19.7807 19.9628 20.4355 19.9628ZM22.5872 12.9901C25.9738 12.0342 28.2752 10.0286 29.8282 6.69218C30.0901 6.11112 30.7824 5.84871 31.3624 6.12987C31.6057 6.24233 31.7928 6.42977 31.905 6.67344C32.036 6.93585 35.2168 13.0088 43.6365 13.0088H45.9004C45.9378 12.6152 45.9566 12.2403 45.9566 11.8467C45.9566 5.43635 40.2312 0.225586 33.196 0.225586C26.1609 0.225586 20.4355 5.43635 20.4355 11.8467C20.4355 12.2403 20.4543 12.6152 20.4917 13.0088H22.5872V12.9901ZM44.8152 15.3143V19.9628H45.9753C46.6114 19.9628 47.1353 19.4379 47.1353 18.8006V16.4764C47.1353 15.8391 46.6114 15.3143 45.9753 15.3143H44.8152ZM54.0956 41.3869C54.1143 38.0505 52.0749 35.0515 48.9876 33.8331L44.7965 32.1462L47.0979 40.5996C47.0979 40.6184 47.0979 40.6371 47.1166 40.6371L49.3244 50.1964H54.1143V41.3869H54.0956ZM54.0956 56.2132V52.5207H49.8483L50.2974 54.4888C50.5406 55.5197 50.4845 56.6068 50.1477 57.619L48.3889 62.9984L49.1373 65.3226H51.9626C51.8316 64.9478 51.7568 64.5541 51.7568 64.1605V59.5121C51.7755 58.0313 52.711 56.7005 54.0956 56.2132ZM6.49628 58.35H11.1365C11.7726 58.35 12.2965 58.8748 12.2965 59.5121V64.1605C12.2965 64.7978 11.7726 65.3226 11.1365 65.3226H6.49628C5.86012 65.3226 5.33623 64.7978 5.33623 64.1605V59.5121C5.33623 58.856 5.86012 58.35 6.49628 58.35ZM44.441 39.7374L42.0835 31.0591L39.5763 30.0469L42.2145 39.7374H44.441ZM34.3561 30.4405H32.036C31.0818 30.4405 30.1462 30.3093 29.2294 30.0469L26.5913 39.7374H39.8008L37.1627 30.0469C36.2458 30.3093 35.3103 30.4405 34.3561 30.4405ZM18.5084 54.3763L18.3587 55.0136C18.2277 55.6321 18.2651 56.2507 18.4522 56.8505L20.3794 62.6235C20.4542 62.8672 20.4542 63.1296 20.3794 63.3545L19.7245 65.3039H46.705L46.0688 63.3358C45.994 63.0921 45.994 62.8485 46.0688 62.6235L47.9586 56.888C48.1644 56.2882 48.1831 55.6321 48.0521 55.0136L45.0397 42.0616H21.3524L20.8472 44.2172C21.4646 44.3296 22.1008 44.3859 22.7556 44.3859H25.9551L30.3521 42.1741C30.9321 41.8929 31.6244 42.1179 31.905 42.6989C31.9799 42.8676 32.036 43.0363 32.036 43.2238V54.8449C32.036 55.4822 31.5121 56.007 30.876 56.007C30.6889 56.007 30.5205 55.9695 30.3521 55.8758L25.9551 53.6828H22.8118C22.475 53.7203 20.6039 53.9452 18.5084 54.3763ZM26.7597 51.4897L29.7159 52.9705V45.0981L26.7597 46.5789C26.5913 46.6539 26.4229 46.7101 26.2358 46.7101H23.9157V51.3585H26.2358C26.4229 51.3585 26.5913 51.4148 26.7597 51.4897ZM12.8204 56.4568C13.9243 57.0754 14.6166 58.2375 14.6166 59.5121V64.1605C14.6166 64.5541 14.5418 64.9478 14.4108 65.3226H17.2548L18.0219 62.9984L16.2257 57.6002C15.945 56.7755 15.8702 55.8758 15.9825 55.0136C14.2237 55.5384 13.3069 56.0632 12.8204 56.4568ZM10.2384 56.007C10.9306 54.4888 13.0449 53.3079 16.6747 52.4082C18.3026 52.0146 19.9491 51.6959 21.5956 51.4897V46.6539C19.2568 46.4664 17.8348 45.6792 16.4689 44.9294C14.8598 44.0485 13.3256 43.205 9.99512 43.205C4.81234 43.2238 1.6877 45.3043 0.696045 46.0915V51.9209L6.85177 56.0257L10.2384 56.007ZM18.6393 43.4674L19.2942 40.6371C19.2942 40.6184 19.2942 40.5996 19.3129 40.5996L21.6143 32.1462L17.4232 33.8331C14.4482 35.014 12.4462 37.8443 12.3152 41.0495C14.7663 41.3681 16.2444 42.1741 17.5728 42.9051C17.9283 43.1113 18.2838 43.2987 18.6393 43.4674ZM24.1776 39.7374L26.8158 30.0469L24.3086 31.0591L21.9511 39.7374H24.1776ZM62.2159 43.2238H64.536C65.1722 43.2238 65.696 42.6989 65.696 42.0616C65.696 41.4244 65.1722 40.8995 64.536 40.8995H62.2159C60.2887 40.8995 58.7358 42.4553 58.7358 44.3859V56.007H59.8958C60.2887 56.007 60.6817 56.082 61.0559 56.2132V52.5207H64.536C65.1722 52.5207 65.696 51.9958 65.696 51.3585C65.696 50.7213 65.1722 50.1964 64.536 50.1964H61.0559V47.8722H64.536C65.1722 47.8722 65.696 47.3474 65.696 46.7101C65.696 46.0728 65.1722 45.548 64.536 45.548H61.0559V44.3859C61.0559 43.7486 61.5798 43.2238 62.2159 43.2238Z" fill="#E61771"/>
</svg>
