<svg width="72" height="74" viewBox="0 0 72 74" fill="none" xmlns="http://www.w3.org/2000/svg">
<path d="M24.4359 29.5C26.1966 29.5 27.8427 30.6572 28.9449 32.6641L30.3048 35.1543C30.6054 35.6963 31.1923 35.8428 31.6361 35.6963C32.1514 35.5352 32.4949 35.0371 32.452 34.4805C31.9796 28.3135 27.8427 24.0215 24.4359 24.0215C21.029 24.0215 16.8921 28.3135 16.4197 34.4805C16.3768 35.0225 16.7203 35.5352 17.2357 35.6963C17.7224 35.8574 18.2949 35.623 18.5669 35.1543L19.9268 32.6641C21.029 30.6426 22.6752 29.5 24.4359 29.5ZM35.8875 0.583984C16.2766 0.583984 0.387482 16.8438 0.387482 36.9121C0.387482 56.9805 16.2766 73.2402 35.8875 73.2402C55.4984 73.2402 71.3875 56.9805 71.3875 36.9121C71.3875 16.8438 55.4984 0.583984 35.8875 0.583984ZM35.8875 68.5527C18.8389 68.5527 4.96813 54.3584 4.96813 36.9121C4.96813 19.4658 18.8389 5.27148 35.8875 5.27148C52.9361 5.27148 66.8068 19.4658 66.8068 36.9121C66.8068 54.3584 52.9361 68.5527 35.8875 68.5527ZM47.3391 24.0215C43.9322 24.0215 39.7953 28.3135 39.323 34.4805C39.28 35.0225 39.6236 35.5352 40.1389 35.6963C40.6256 35.8574 41.1982 35.623 41.4701 35.1543L42.83 32.6641C43.9322 30.6572 45.5784 29.5 47.3391 29.5C49.0998 29.5 50.7459 30.6572 51.8482 32.6641L53.208 35.1543C53.5087 35.6963 54.0955 35.8428 54.5393 35.6963C55.0546 35.5352 55.3982 35.0371 55.3552 34.4805C54.8828 28.3135 50.7459 24.0215 47.3391 24.0215ZM48.7992 47.1367C45.5927 51.0625 40.8832 53.3184 35.8875 53.3184C30.8917 53.3184 26.1822 51.0625 22.9758 47.1367C22.1599 46.1406 20.7141 46.0088 19.755 46.8437C18.7816 47.6787 18.6528 49.1436 19.4687 50.1396C23.5341 55.1348 29.5318 58.0059 35.8875 58.0059C42.2431 58.0059 48.2409 55.1348 52.3205 50.125C53.1365 49.1289 53.0076 47.6494 52.0343 46.8291C51.0466 46.0088 49.6151 46.1406 48.7992 47.1367Z" fill="#E43581"/>
</svg>
