<svg width="31" height="31" viewBox="0 0 31 31" fill="none" xmlns="http://www.w3.org/2000/svg">
<g clip-path="url(#clip0)">
<path d="M18.6834 11.4274V13.3025C18.683 13.4889 18.6087 13.6675 18.4769 13.7994C18.3451 13.9312 18.1665 14.0054 17.9801 14.0059H14.699V17.2877C14.6986 17.4741 14.6243 17.6528 14.4925 17.7846C14.3607 17.9164 14.1821 17.9906 13.9957 17.9911H12.1206C11.9341 17.9906 11.7555 17.9164 11.6237 17.7846C11.4919 17.6528 11.4176 17.4741 11.4172 17.2877V14.0059H8.13617C7.94976 14.0054 7.77111 13.9312 7.6393 13.7994C7.50749 13.6675 7.43324 13.4889 7.4328 13.3025V11.4274C7.43324 11.241 7.50749 11.0623 7.6393 10.9305C7.77111 10.7987 7.94976 10.7245 8.13617 10.724H11.418V7.443C11.4185 7.25659 11.4927 7.07794 11.6245 6.94612C11.7563 6.81431 11.935 6.74006 12.1214 6.73962H13.9965C14.1829 6.74006 14.3616 6.81431 14.4934 6.94612C14.6252 7.07794 14.6994 7.25659 14.6999 7.443V10.7248H17.9817C18.1677 10.7257 18.3458 10.8 18.4772 10.9316C18.6087 11.0632 18.6828 11.2414 18.6834 11.4274ZM30.4616 28.11L28.8032 29.7684C28.673 29.8993 28.5182 30.0032 28.3477 30.0741C28.1772 30.145 27.9944 30.1815 27.8098 30.1815C27.6251 30.1815 27.4423 30.145 27.2718 30.0741C27.1013 30.0032 26.9466 29.8993 26.8164 29.7684L20.9686 23.9281C20.8376 23.7967 20.7339 23.6407 20.6635 23.4691C20.5932 23.2974 20.5575 23.1135 20.5585 22.928V21.9746C18.1133 23.8828 15.0324 24.7865 11.9439 24.5013C8.85542 24.2162 5.99198 22.7638 3.93744 20.4403C1.8829 18.1167 0.791992 15.097 0.887149 11.9968C0.982306 8.89667 2.25636 5.94954 4.44954 3.75636C6.64272 1.56319 9.58985 0.28913 12.69 0.193973C15.7902 0.0988157 18.8099 1.18973 21.1334 3.24426C23.457 5.2988 24.9094 8.16225 25.1945 11.2507C25.4796 14.3392 24.576 17.4202 22.6678 19.8654H23.6212C23.8067 19.8643 23.9906 19.9 24.1622 19.9704C24.3339 20.0407 24.4899 20.1444 24.6213 20.2754L30.4632 26.1174C30.7254 26.3828 30.8722 26.7409 30.8719 27.114C30.8716 27.4871 30.7241 27.845 30.4616 28.11ZM21.0277 12.3649C21.0277 10.7887 20.5603 9.24779 19.6845 7.93717C18.8088 6.62656 17.5641 5.60507 16.1078 5.0019C14.6515 4.39872 13.049 4.24095 11.503 4.54852C9.95704 4.8561 8.53699 5.61521 7.42245 6.72987C6.30792 7.84452 5.54895 9.26465 5.24154 10.8107C4.93412 12.3567 5.09206 13.9591 5.69539 15.4154C6.29872 16.8716 7.32034 18.1162 8.63104 18.9918C9.94175 19.8674 11.4827 20.3347 13.0589 20.3345C14.1057 20.3354 15.1424 20.1299 16.1097 19.7297C17.077 19.3295 17.9558 18.7424 18.696 18.0022C19.4361 17.262 20.0231 16.3831 20.4232 15.4157C20.8233 14.4484 21.0287 13.4117 21.0277 12.3649Z" fill="#E43581"/>
</g>
<defs>
<clipPath id="clip0">
<rect width="30" height="30.005" fill="white" transform="translate(0.869812 0.176758)"/>
</clipPath>
</defs>
</svg>
